<svg width="70" height="70" fill="none" xmlns="http://www.w3.org/2000/svg"><path d="M50.313 2.188h-8.75V1.093a1.094 1.094 0 00-2.188 0v1.093h-8.75V1.095a1.094 1.094 0 00-2.188 0v1.093h-8.75V1.095a1.094 1.094 0 00-2.187 0v1.093H8.75c-.604 0-1.094.49-1.094 1.094v65.625c0 .604.49 1.094 1.094 1.094h41.563c.603 0 1.093-.49 1.093-1.094V3.281c0-.604-.49-1.094-1.093-1.094zm-1.094 65.624H9.844V4.376H17.5v3.281a1.094 1.094 0 002.188 0V4.375h8.75v3.281a1.094 1.094 0 002.187 0V4.375h8.75v3.281a1.094 1.094 0 002.188 0V4.375h7.656v63.438z" fill="#333"/><path d="M25.156 12.031H14.22c-.604 0-1.094.49-1.094 1.094v10.938c0 .604.49 1.093 1.094 1.093h10.937c.604 0 1.094-.49 1.094-1.093V13.124c0-.604-.49-1.094-1.094-1.094zM24.063 22.97h-8.75v-8.75h8.75v8.75zm1.093 4.374H14.22c-.604 0-1.094.49-1.094 1.093v10.938c0 .604.49 1.094 1.094 1.094h10.937c.604 0 1.094-.49 1.094-1.094V28.437c0-.604-.49-1.093-1.094-1.093zM24.063 38.28h-8.75v-8.75h8.75v8.75zm1.093 4.376H14.22c-.604 0-1.094.49-1.094 1.094v10.938c0 .603.49 1.093 1.094 1.093h10.937c.604 0 1.094-.49 1.094-1.093V43.75c0-.604-.49-1.094-1.094-1.094zm-1.093 10.938h-8.75v-8.75h8.75v8.75zm5.468-39.375c0 .604.49 1.094 1.094 1.094H43.75a1.094 1.094 0 000-2.188H30.625c-.604 0-1.094.49-1.094 1.094zm14.219 7.656H30.625a1.094 1.094 0 000 2.188H43.75a1.094 1.094 0 000-2.188zm-13.125-2.187h5.469a1.094 1.094 0 000-2.188h-5.469a1.094 1.094 0 000 2.188zm10.938 0a1.094 1.094 0 000-2.188h-2.188a1.094 1.094 0 000 2.188h2.188zm2.187 8.75H30.625a1.094 1.094 0 000 2.187H43.75a1.094 1.094 0 000-2.188zm0 8.75H30.625a1.094 1.094 0 000 2.187H43.75a1.094 1.094 0 000-2.188zM30.625 35h5.469a1.094 1.094 0 000-2.188h-5.469a1.094 1.094 0 000 2.188zm10.938 0a1.094 1.094 0 000-2.188h-2.188a1.094 1.094 0 000 2.188h2.188zm2.187 8.75H30.625a1.094 1.094 0 000 2.188H43.75a1.094 1.094 0 000-2.188zm0 8.75H30.625a1.094 1.094 0 000 2.188H43.75a1.094 1.094 0 000-2.188zm-13.125-2.187h5.469a1.094 1.094 0 000-2.188h-5.469a1.094 1.094 0 000 2.188zm10.938 0a1.094 1.094 0 000-2.188h-2.188a1.094 1.094 0 000 2.188h2.188zm16.953-36.094a3.828 3.828 0 00-3.828 3.828v32.266a.935.935 0 00.02.095.696.696 0 000 .084l1.093 6.562c.087.526.541.912 1.074.915h3.281c.535 0 .991-.387 1.079-.915l1.093-6.562a.696.696 0 000-.084.958.958 0 00.016-.096V18.047a3.828 3.828 0 00-3.828-3.828zm.714 41.562H57.8l-.728-4.375h2.885l-.728 4.375zm.926-6.562h-3.281v-26.25h3.281v26.25zm0-28.438h-3.281v-2.734a1.64 1.64 0 013.281 0v2.734z" fill="#333"/></svg>