<svg width="70" height="70" fill="none" xmlns="http://www.w3.org/2000/svg"><path d="M45.744 40.94L35.9 26.722a1.093 1.093 0 00-1.8 0L24.258 40.94a1.094 1.094 0 00-.138.968l2.801 8.404h-.67a1.093 1.093 0 00-1.094 1.094v3.282a1.094 1.094 0 001.094 1.093h1.094v12.032a1.094 1.094 0 001.094 1.093h13.125a1.094 1.094 0 001.093-1.094v-12.03h1.094a1.094 1.094 0 001.094-1.094v-3.282a1.094 1.094 0 00-1.094-1.093h-.67l2.802-8.405a1.091 1.091 0 00-.138-.968zM35 39.375a1.094 1.094 0 110 2.188 1.094 1.094 0 010-2.188zm5.469 27.344H29.53V55.78h10.94v10.94zm2.187-13.125H27.344V52.5h15.312v1.094zm-1.882-3.282H29.227l-2.86-8.576 7.54-10.89v6.341c0 .062.006.123.016.184a3.281 3.281 0 102.154 0c.01-.06.016-.122.017-.184v-6.342l7.54 10.891-2.86 8.577z" fill="#333"/><path d="M67.813 13.125h-4.376a1.093 1.093 0 00-1.093 1.094v1.103a1.118 1.118 0 00-.137-.01H38.281V14.22a1.094 1.094 0 00-1.093-1.094h-1.094v-5.47h1.093a1.094 1.094 0 001.094-1.093V2.188a1.094 1.094 0 00-1.093-1.094h-4.376a1.094 1.094 0 00-1.093 1.093v4.376a1.094 1.094 0 001.093 1.093h1.094v5.469h-1.093a1.093 1.093 0 00-1.094 1.094v1.094H7.656v-1.094a1.094 1.094 0 00-1.093-1.094H2.188a1.093 1.093 0 00-1.094 1.094v4.375a1.094 1.094 0 001.093 1.093h4.376a1.093 1.093 0 001.093-1.093V17.5H25.74a17.106 17.106 0 00-3.827 3.466c-2.804 3.4-4.412 7.718-4.412 11.846h-1.094a1.093 1.093 0 00-1.093 1.094v4.375a1.093 1.093 0 001.093 1.094h4.375a1.093 1.093 0 001.094-1.094v-4.375a1.093 1.093 0 00-1.094-1.093h-1.093c0-8.11 6.24-14.508 12.03-15.242v1.023a1.094 1.094 0 001.095 1.093h4.374a1.093 1.093 0 001.094-1.093v-1.027c2.962.351 5.804 2.126 8.098 5.086 2.233 2.878 3.65 6.605 3.895 10.16H49.22a1.093 1.093 0 00-1.094 1.093v4.375a1.093 1.093 0 001.094 1.094h4.375a1.093 1.093 0 001.093-1.094v-4.375a1.093 1.093 0 00-1.093-1.093h-1.128c-.24-4.062-1.797-8.2-4.357-11.501a17.283 17.283 0 00-4.02-3.812h18.118c.046 0 .091-.004.137-.01v1.104a1.094 1.094 0 001.093 1.093h4.376a1.093 1.093 0 001.093-1.093v-4.375a1.094 1.094 0 00-1.094-1.094zM5.468 17.5H3.28v-2.188h2.19V17.5zm14.218 19.688H17.5V35h2.188v2.188zM33.907 3.28h2.187v2.19h-2.188V3.28zm2.186 14.22h-2.188v-2.188h2.188V17.5zM50.312 35H52.5v2.188h-2.188V35zM66.72 17.5h-2.19v-2.188h2.188V17.5z" fill="#333"/></svg>