<svg width="70" height="70" fill="none" xmlns="http://www.w3.org/2000/svg"><path d="M25.364 43.713a3.77 3.77 0 00-3.254-1.877h-4.952v-2.97c2.335-.456 4.17-2.437 4.36-4.88a1.026 1.026 0 00-2.046-.159 3.363 3.363 0 01-3.339 3.087 3.353 3.353 0 01-3.35-3.35 3.353 3.353 0 015.024-2.902 1.025 1.025 0 101.027-1.775c-.52-.3-1.087-.51-1.676-.624v-2.99a3.424 3.424 0 002.393-3.261c0-1.53-1.01-2.828-2.399-3.263l.02-2.131a.725.725 0 01.589-.702c3.69-.77 6.37-4.082 6.37-7.876 0-4.355-3.649-8.037-7.968-8.04h-.004c-3.114 0-6.013 1.975-7.387 5.032a1.025 1.025 0 001.87.84c1.044-2.321 3.21-3.821 5.517-3.821h.003c2.858.002 5.918 2.409 5.918 5.99 0 2.827-1.992 5.295-4.738 5.868a2.763 2.763 0 00-2.22 2.69l-.02 2.154a3.423 3.423 0 00-2.387 3.259 3.424 3.424 0 002.393 3.26v2.99a5.409 5.409 0 00-4.375 5.303 5.409 5.409 0 004.375 5.301v2.97h-4.952c-1.337 0-2.584.72-3.254 1.877L.93 54.035a3.77 3.77 0 000 3.766l5.972 10.322A3.771 3.771 0 0010.156 70H22.11c1.337 0 2.584-.72 3.254-1.877l5.972-10.322a3.77 3.77 0 000-3.766l-5.972-10.322zm-9.231-23.069a1.369 1.369 0 010 2.734 1.369 1.369 0 01-1.367-1.366c0-.754.613-1.367 1.367-1.367zm13.428 36.13l-5.972 10.322a1.714 1.714 0 01-1.48.853H10.157a1.714 1.714 0 01-1.479-.853L2.705 56.774a1.714 1.714 0 010-1.712L8.677 44.74a1.714 1.714 0 011.48-.853H22.11c.608 0 1.175.327 1.479.853l5.972 10.322a1.714 1.714 0 010 1.712z" fill="#333"/><path d="M21.244 49.447a2.4 2.4 0 00-2.072-1.197h-6.078a2.4 2.4 0 00-2.072 1.197L7.983 54.71a2.4 2.4 0 000 2.393l.48.832a1.026 1.026 0 001.776-1.026l-.48-.832a.343.343 0 010-.341l3.039-5.264a.343.343 0 01.296-.171h6.078c.121 0 .235.066.296.17l3.038 5.265a.34.34 0 010 .341l-3.038 5.264a.343.343 0 01-.296.171h-6.078c-.257.022-.377-.33-.487-.501a1.026 1.026 0 00-1.776 1.025l.19.33a2.4 2.4 0 002.073 1.197h6.078a2.4 2.4 0 002.071-1.197l3.04-5.263a2.4 2.4 0 000-2.393l-3.04-5.264zm47.826 4.588l-1.739-3.005a1.025 1.025 0 10-1.775 1.027l1.74 3.005a1.714 1.714 0 010 1.712l-5.973 10.322a1.714 1.714 0 01-1.479.853H47.891a1.714 1.714 0 01-1.48-.853L40.44 56.774a1.714 1.714 0 010-1.712l5.97-10.322a1.714 1.714 0 011.48-.853h11.953c.608 0 1.175.327 1.48.853l1.86 3.215a1.025 1.025 0 101.774-1.027l-1.86-3.215a3.77 3.77 0 00-3.254-1.877h-4.951v-2.97a5.409 5.409 0 004.375-5.301 5.409 5.409 0 00-4.375-5.302v-2.99a3.424 3.424 0 002.392-3.261c0-1.53-1.01-2.828-2.398-3.263l.02-2.131a.725.725 0 01.588-.702c3.691-.77 6.37-4.082 6.37-7.876 0-.304-.017-.61-.051-.91a1.025 1.025 0 10-2.038.233c.026.223.038.45.038.677 0 2.828-1.992 5.296-4.738 5.869a2.763 2.763 0 00-2.22 2.689l-.02 2.155a3.424 3.424 0 00-2.387 3.259 3.424 3.424 0 002.393 3.26v2.99a5.409 5.409 0 00-4.375 5.303 5.409 5.409 0 004.375 5.301v2.97H47.89c-1.338 0-2.585.72-3.255 1.877l-5.972 10.322a3.77 3.77 0 000 3.766l5.972 10.322A3.771 3.771 0 0047.891 70h11.953c1.337 0 2.584-.72 3.255-1.877l5.971-10.322a3.77 3.77 0 000-3.766zm-15.203-33.39c.754 0 1.368.613 1.368 1.367s-.614 1.367-1.368 1.367a1.369 1.369 0 01-1.367-1.367c0-.754.614-1.367 1.367-1.367zm-3.35 12.92a3.353 3.353 0 013.35-3.35 3.353 3.353 0 013.35 3.35 3.353 3.353 0 01-3.35 3.35 3.353 3.353 0 01-3.35-3.35zM47.021 6.388c.505.23 1.123.007 1.356-.515C49.42 3.55 51.586 2.05 53.893 2.05h.003c1.465 0 2.948.619 4.07 1.696a1.025 1.025 0 001.42-1.478C57.887.829 55.886 0 53.898 0h-.005c-3.113 0-6.013 1.975-7.386 5.032a1.025 1.025 0 00.514 1.356z" fill="#333"/><path d="M56.906 48.25h-6.078a2.4 2.4 0 00-2.072 1.197l-3.038 5.263a2.399 2.399 0 000 2.393l3.038 5.264a2.4 2.4 0 002.072 1.196h6.078a2.4 2.4 0 002.072-1.197l3.039-5.263a2.4 2.4 0 000-2.393l-3.04-5.264a2.4 2.4 0 00-2.071-1.196zm3.334 7.827l-3.038 5.264a.343.343 0 01-.296.171h-6.078a.343.343 0 01-.296-.17l-3.039-5.265a.343.343 0 010-.341l3.04-5.264a.343.343 0 01.295-.171h6.078c.122 0 .235.066.296.17l3.038 5.265a.34.34 0 010 .341z" fill="#333"/></svg>