<svg width="70" height="70" fill="none" xmlns="http://www.w3.org/2000/svg"><path d="M61.25 39.346c-.604 0-1.094.49-1.094 1.094v7.664h-1.74a6.913 6.913 0 00-13.737 0H21.875V16.385h38.281v3.44a1.094 1.094 0 002.188 0v-4.533c0-.604-.49-1.094-1.094-1.094H20.781c-.604 0-1.093.49-1.093 1.094v1.093H7.162a4.98 4.98 0 00-4.974 4.975v1.588c0 .604.49 1.094 1.093 1.094h1.272L3.72 34.066A4.971 4.971 0 000 38.86v9.244c0 .604.49 1.094 1.094 1.094h2.215a7.103 7.103 0 0014.164 0c.01 0 .017.005.027.005h2.188c0 .604.49 1.094 1.093 1.094h23.997a6.915 6.915 0 0013.539 0h2.933c.604 0 1.094-.49 1.094-1.094V40.44c0-.604-.49-1.094-1.094-1.094zM10.39 53.573a4.922 4.922 0 110-9.844 4.922 4.922 0 010 9.844zm9.297-6.563H17.5c-.064.007-.128.02-.19.039a7.1 7.1 0 00-13.83-.039H2.188v-8.15a2.79 2.79 0 012.786-2.787h14.713V47.01zm0-13.125H5.928l.82-9.843h12.94v9.843zm0-12.03H4.376v-.495a2.79 2.79 0 012.787-2.787h12.526v3.281zm36.58 27.3a4.718 4.718 0 01-4.719 4.453 4.726 4.726 0 01-4.647-3.92.984.984 0 00-.056-1.063 4.719 4.719 0 019.422.53z" fill="#333"/><path d="M60.156 22.948H44.844a1.094 1.094 0 000 2.187h15.312a1.094 1.094 0 100-2.187zm2.188 12.032H38.28a1.094 1.094 0 000 2.187h24.063a1.094 1.094 0 000-2.188zm-2.188-6.563H48.125a1.094 1.094 0 000 2.187h12.031a1.094 1.094 0 100-2.187zm4.375-3.282h2.188a1.094 1.094 0 000-2.187H64.53a1.094 1.094 0 000 2.187zm3.282 9.845h-2.188a1.094 1.094 0 000 2.187h2.188a1.094 1.094 0 000-2.188zm1.093-6.563h-4.375a1.094 1.094 0 000 2.187h4.375a1.094 1.094 0 100-2.187z" fill="#333"/></svg>