<svg width="0" height="0" class="hidden">
  <symbol xmlns="http://www.w3.org/2000/svg" viewBox="0 0 26 26" id="icon-fb">
    <path d="M14.513 22.747v-8.88h2.996l.445-3.476h-3.44V8.177c0-1.003.279-1.69 1.719-1.69h1.824v-3.1a24.198 24.198 0 00-2.673-.137c-2.647 0-4.465 1.616-4.465 4.584v2.55H7.943v3.477h2.982v8.886h3.588z"></path>
  </symbol>
  <symbol xmlns="http://www.w3.org/2000/svg" viewBox="0 0 70 70" id="icon-jewelry">
    <g clip-path="url(#clip0)">
      <path d="M25.364 43.713a3.77 3.77 0 00-3.254-1.877h-4.952v-2.97c2.335-.456 4.17-2.437 4.36-4.88a1.026 1.026 0 00-2.046-.159 3.363 3.363 0 01-3.339 3.087 3.353 3.353 0 01-3.35-3.35 3.353 3.353 0 015.024-2.902 1.025 1.025 0 101.027-1.775c-.52-.3-1.087-.51-1.676-.624v-2.99a3.424 3.424 0 002.393-3.261c0-1.53-1.01-2.828-2.399-3.263l.02-2.131a.725.725 0 01.589-.702c3.69-.77 6.37-4.082 6.37-7.876 0-4.355-3.649-8.037-7.968-8.04h-.004c-3.114 0-6.013 1.975-7.387 5.032a1.025 1.025 0 001.87.84c1.044-2.321 3.21-3.821 5.517-3.821h.003c2.858.002 5.918 2.409 5.918 5.99 0 2.827-1.992 5.295-4.738 5.868a2.763 2.763 0 00-2.22 2.69l-.02 2.154a3.423 3.423 0 00-2.387 3.259 3.424 3.424 0 002.393 3.26v2.99a5.409 5.409 0 00-4.375 5.303 5.409 5.409 0 004.375 5.301v2.97h-4.952c-1.337 0-2.584.72-3.254 1.877L.93 54.035a3.77 3.77 0 000 3.766l5.972 10.322A3.771 3.771 0 0010.156 70H22.11c1.337 0 2.584-.72 3.254-1.877l5.972-10.322a3.77 3.77 0 000-3.766l-5.972-10.322zm-9.231-23.069a1.369 1.369 0 010 2.734 1.369 1.369 0 01-1.367-1.366c0-.754.613-1.367 1.367-1.367zm13.428 36.13l-5.972 10.322a1.714 1.714 0 01-1.48.853H10.157a1.714 1.714 0 01-1.479-.853L2.705 56.774a1.714 1.714 0 010-1.712L8.677 44.74a1.714 1.714 0 011.48-.853H22.11c.608 0 1.175.327 1.479.853l5.972 10.322a1.714 1.714 0 010 1.712z"></path>
      <path d="M21.244 49.447a2.4 2.4 0 00-2.072-1.197h-6.078a2.4 2.4 0 00-2.072 1.197L7.983 54.71a2.4 2.4 0 000 2.393l.48.832a1.026 1.026 0 001.776-1.026l-.48-.832a.343.343 0 010-.341l3.039-5.264a.343.343 0 01.296-.171h6.078c.121 0 .235.066.296.17l3.038 5.265a.34.34 0 010 .341l-3.038 5.264a.343.343 0 01-.296.171h-6.078c-.257.022-.377-.33-.487-.501a1.026 1.026 0 00-1.776 1.025l.19.33a2.4 2.4 0 002.073 1.197h6.078a2.4 2.4 0 002.071-1.197l3.04-5.263a2.4 2.4 0 000-2.393l-3.04-5.264zm47.826 4.588l-1.739-3.005a1.025 1.025 0 10-1.775 1.027l1.74 3.005a1.714 1.714 0 010 1.712l-5.973 10.322a1.714 1.714 0 01-1.479.853H47.891a1.714 1.714 0 01-1.48-.853L40.44 56.774a1.714 1.714 0 010-1.712l5.97-10.322a1.714 1.714 0 011.48-.853h11.953c.608 0 1.175.327 1.48.853l1.86 3.215a1.025 1.025 0 101.774-1.027l-1.86-3.215a3.77 3.77 0 00-3.254-1.877h-4.951v-2.97a5.409 5.409 0 004.375-5.301 5.409 5.409 0 00-4.375-5.302v-2.99a3.424 3.424 0 002.392-3.261c0-1.53-1.01-2.828-2.398-3.263l.02-2.131a.725.725 0 01.588-.702c3.691-.77 6.37-4.082 6.37-7.876 0-.304-.017-.61-.051-.91a1.025 1.025 0 10-2.038.233c.026.223.038.45.038.677 0 2.828-1.992 5.296-4.738 5.869a2.763 2.763 0 00-2.22 2.689l-.02 2.155a3.424 3.424 0 00-2.387 3.259 3.424 3.424 0 002.393 3.26v2.99a5.409 5.409 0 00-4.375 5.303 5.409 5.409 0 004.375 5.301v2.97H47.89c-1.338 0-2.585.72-3.255 1.877l-5.972 10.322a3.77 3.77 0 000 3.766l5.972 10.322A3.771 3.771 0 0047.891 70h11.953c1.337 0 2.584-.72 3.255-1.877l5.971-10.322a3.77 3.77 0 000-3.766zm-15.203-33.39c.754 0 1.368.613 1.368 1.367s-.614 1.367-1.368 1.367a1.369 1.369 0 01-1.367-1.367c0-.754.614-1.367 1.367-1.367zm-3.35 12.92a3.353 3.353 0 013.35-3.35 3.353 3.353 0 013.35 3.35 3.353 3.353 0 01-3.35 3.35 3.353 3.353 0 01-3.35-3.35zM47.021 6.388c.505.23 1.123.007 1.356-.515C49.42 3.55 51.586 2.05 53.893 2.05h.003c1.465 0 2.948.619 4.07 1.696a1.025 1.025 0 001.42-1.478C57.887.829 55.886 0 53.898 0h-.005c-3.113 0-6.013 1.975-7.386 5.032a1.025 1.025 0 00.514 1.356z"></path>
      <path d="M56.906 48.25h-6.078a2.4 2.4 0 00-2.072 1.197l-3.038 5.263a2.399 2.399 0 000 2.393l3.038 5.264a2.4 2.4 0 002.072 1.196h6.078a2.4 2.4 0 002.072-1.197l3.039-5.263a2.4 2.4 0 000-2.393l-3.04-5.264a2.4 2.4 0 00-2.071-1.196zm3.334 7.827l-3.038 5.264a.343.343 0 01-.296.171h-6.078a.343.343 0 01-.296-.17l-3.039-5.265a.343.343 0 010-.341l3.04-5.264a.343.343 0 01.295-.171h6.078c.122 0 .235.066.296.17l3.038 5.265a.34.34 0 010 .341z"></path>
    </g>
    <defs>
      <clipPath id="clip0">
        <path d="M0 0h70v70H0z"></path>
      </clipPath>
    </defs>
  </symbol>
  <symbol xmlns="http://www.w3.org/2000/svg" viewBox="0 0 18 18" id="icon-like">
    <path d="M8.973 4.596C6.22.341.643 2.66.643 7.295c0 3.48 7.644 8.926 8.33 9.634.692-.708 7.956-6.153 7.956-9.634 0-4.6-5.196-6.954-7.956-2.699z"></path>
  </symbol>
  <symbol xmlns="http://www.w3.org/2000/svg" viewBox="0 0 70 70" id="icon-list">
    <path d="M50.313 2.188h-8.75V1.093a1.094 1.094 0 00-2.188 0v1.093h-8.75V1.095a1.094 1.094 0 00-2.188 0v1.093h-8.75V1.095a1.094 1.094 0 00-2.187 0v1.093H8.75c-.604 0-1.094.49-1.094 1.094v65.625c0 .604.49 1.094 1.094 1.094h41.563c.603 0 1.093-.49 1.093-1.094V3.281c0-.604-.49-1.094-1.093-1.094zm-1.094 65.624H9.844V4.376H17.5v3.281a1.094 1.094 0 002.188 0V4.375h8.75v3.281a1.094 1.094 0 002.187 0V4.375h8.75v3.281a1.094 1.094 0 002.188 0V4.375h7.656v63.438z"></path>
    <path d="M25.156 12.031H14.22c-.604 0-1.094.49-1.094 1.094v10.938c0 .604.49 1.093 1.094 1.093h10.937c.604 0 1.094-.49 1.094-1.093V13.124c0-.604-.49-1.094-1.094-1.094zM24.063 22.97h-8.75v-8.75h8.75v8.75zm1.093 4.374H14.22c-.604 0-1.094.49-1.094 1.093v10.938c0 .604.49 1.094 1.094 1.094h10.937c.604 0 1.094-.49 1.094-1.094V28.437c0-.604-.49-1.093-1.094-1.093zM24.063 38.28h-8.75v-8.75h8.75v8.75zm1.093 4.376H14.22c-.604 0-1.094.49-1.094 1.094v10.938c0 .603.49 1.093 1.094 1.093h10.937c.604 0 1.094-.49 1.094-1.093V43.75c0-.604-.49-1.094-1.094-1.094zm-1.093 10.938h-8.75v-8.75h8.75v8.75zm5.468-39.375c0 .604.49 1.094 1.094 1.094H43.75a1.094 1.094 0 000-2.188H30.625c-.604 0-1.094.49-1.094 1.094zm14.219 7.656H30.625a1.094 1.094 0 000 2.188H43.75a1.094 1.094 0 000-2.188zm-13.125-2.187h5.469a1.094 1.094 0 000-2.188h-5.469a1.094 1.094 0 000 2.188zm10.938 0a1.094 1.094 0 000-2.188h-2.188a1.094 1.094 0 000 2.188h2.188zm2.187 8.75H30.625a1.094 1.094 0 000 2.187H43.75a1.094 1.094 0 000-2.188zm0 8.75H30.625a1.094 1.094 0 000 2.187H43.75a1.094 1.094 0 000-2.188zM30.625 35h5.469a1.094 1.094 0 000-2.188h-5.469a1.094 1.094 0 000 2.188zm10.938 0a1.094 1.094 0 000-2.188h-2.188a1.094 1.094 0 000 2.188h2.188zm2.187 8.75H30.625a1.094 1.094 0 000 2.188H43.75a1.094 1.094 0 000-2.188zm0 8.75H30.625a1.094 1.094 0 000 2.188H43.75a1.094 1.094 0 000-2.188zm-13.125-2.187h5.469a1.094 1.094 0 000-2.188h-5.469a1.094 1.094 0 000 2.188zm10.938 0a1.094 1.094 0 000-2.188h-2.188a1.094 1.094 0 000 2.188h2.188zm16.953-36.094a3.828 3.828 0 00-3.828 3.828v32.266a.935.935 0 00.02.095.696.696 0 000 .084l1.093 6.562c.087.526.541.912 1.074.915h3.281c.535 0 .991-.387 1.079-.915l1.093-6.562a.696.696 0 000-.084.958.958 0 00.016-.096V18.047a3.828 3.828 0 00-3.828-3.828zm.714 41.562H57.8l-.728-4.375h2.885l-.728 4.375zm.926-6.562h-3.281v-26.25h3.281v26.25zm0-28.438h-3.281v-2.734a1.64 1.64 0 013.281 0v2.734z"></path>
  </symbol>
  <symbol xmlns="http://www.w3.org/2000/svg" viewBox="0 0 20 20" id="icon-location">
    <path d="M15.834 7.5a5.833 5.833 0 10-11.667 0c0 1.156.342 2.23.92 3.137h-.006c1.967 3.08 4.92 7.696 4.92 7.696l4.918-7.695h-.005c.6-.937.92-2.026.92-3.138zM10 10a2.5 2.5 0 110-5 2.5 2.5 0 010 5z"></path>
  </symbol>
  <symbol xmlns="http://www.w3.org/2000/svg" viewBox="0 0 20 20" id="icon-mail">
    <path d="M1.574 5.286l7.5 4.029c.252.135.578.199.906.199.328 0 .654-.064.906-.199l7.5-4.029c.489-.263.951-1.286.054-1.286H1.521c-.897 0-.435 1.023.053 1.286zm17.039 2.203l-7.727 4.027c-.34.178-.578.199-.906.199-.328 0-.566-.021-.906-.199-.34-.178-7.133-3.739-7.688-4.028-.39-.204-.386.035-.386.219V15c0 .42.566 1 1 1h16c.434 0 1-.58 1-1V7.708c0-.184.004-.423-.387-.219z"></path>
  </symbol>
  <symbol xmlns="http://www.w3.org/2000/svg" viewBox="0 0 20 20" id="icon-mail2">
    <path d="M17.189 4.038H2.81a.512.512 0 00-.511.511v1.029c0 .047.051.102.093.124l7.557 4.316c.02.011.042.017.064.017a.126.126 0 00.065-.018l7.329-4.311c.04-.023.15-.084.191-.112.05-.034.1-.064.1-.125v-.92a.512.512 0 00-.51-.511zm.448 3.092a.128.128 0 00-.13 0L13.36 9.57a.129.129 0 00-.062.092.127.127 0 00.033.105l4.148 4.472a.127.127 0 00.184.003.127.127 0 00.037-.09V7.24a.127.127 0 00-.063-.11zm-5.472 3.26a.127.127 0 00-.158-.024l-1.663.978a.65.65 0 01-.641.005l-1.463-.836a.128.128 0 00-.15.017l-5.556 5.153a.128.128 0 00.023.204c.086.05.17.075.254.075h14.23a.127.127 0 00.127-.15.127.127 0 00-.033-.065l-4.97-5.357zm-5.298-.47a.128.128 0 00-.023-.204L2.49 7.229a.128.128 0 00-.19.111v6.524a.127.127 0 00.214.094L6.867 9.92z"></path>
  </symbol>
  <symbol xmlns="http://www.w3.org/2000/svg" viewBox="0 0 20 20" id="icon-oldphone">
    <path d="M17.256 12.253c-.096-.667-.611-1.187-1.274-1.342-2.577-.604-3.223-2.088-3.332-3.734C12.193 7.092 11.38 7 10 7s-2.193.092-2.65.177c-.109 1.646-.755 3.13-3.332 3.734-.663.156-1.178.675-1.274 1.342l-.497 3.442C2.072 16.907 2.962 18 4.2 18h11.6c1.237 0 2.128-1.093 1.953-2.305l-.497-3.442zM10 15.492c-1.395 0-2.526-1.12-2.526-2.5s1.131-2.5 2.526-2.5c1.395 0 2.526 1.12 2.526 2.5s-1.132 2.5-2.526 2.5zM19.95 6c-.024-1.5-3.842-3.999-9.95-4C3.891 2.001.073 4.5.05 6 .027 7.5.071 9.452 2.585 9.127c2.941-.381 2.76-1.408 2.76-2.876C5.345 5.227 7.737 4.98 10 4.98c2.263 0 4.654.247 4.655 1.271 0 1.468-.181 2.495 2.76 2.876C19.928 9.452 19.973 7.5 19.95 6z"></path>
  </symbol>
  <symbol xmlns="http://www.w3.org/2000/svg" viewBox="0 0 20 20" id="icon-phone">
    <path d="M12.707 13.425l1.4-1.4a1.368 1.368 0 011.462-.3l1.707.681a1.362 1.362 0 01.85 1.25v3.125a1.355 1.355 0 01-1.425 1.344C4.744 17.381 2.33 7.256 1.876 3.381a1.356 1.356 0 011.356-1.506H6.25a1.35 1.35 0 011.25.85l.68 1.706a1.35 1.35 0 01-.293 1.463l-1.4 1.4s.806 5.456 6.219 6.131z"></path>
  </symbol>
  <symbol xmlns="http://www.w3.org/2000/svg" viewBox="0 0 70 70" id="icon-ribbon-design">
    <path d="M45.744 40.94L35.9 26.722a1.093 1.093 0 00-1.8 0L24.258 40.94a1.094 1.094 0 00-.138.968l2.801 8.404h-.67a1.093 1.093 0 00-1.094 1.094v3.282a1.094 1.094 0 001.094 1.093h1.094v12.032a1.094 1.094 0 001.094 1.093h13.125a1.094 1.094 0 001.093-1.094v-12.03h1.094a1.094 1.094 0 001.094-1.094v-3.282a1.094 1.094 0 00-1.094-1.093h-.67l2.802-8.405a1.091 1.091 0 00-.138-.968zM35 39.375a1.094 1.094 0 110 2.188 1.094 1.094 0 010-2.188zm5.469 27.344H29.53V55.78h10.94v10.94zm2.187-13.125H27.344V52.5h15.312v1.094zm-1.882-3.282H29.227l-2.86-8.576 7.54-10.89v6.341c0 .062.006.123.016.184a3.281 3.281 0 102.154 0c.01-.06.016-.122.017-.184v-6.342l7.54 10.891-2.86 8.577z"></path>
    <path d="M67.813 13.125h-4.376a1.093 1.093 0 00-1.093 1.094v1.103a1.118 1.118 0 00-.137-.01H38.281V14.22a1.094 1.094 0 00-1.093-1.094h-1.094v-5.47h1.093a1.094 1.094 0 001.094-1.093V2.188a1.094 1.094 0 00-1.093-1.094h-4.376a1.094 1.094 0 00-1.093 1.093v4.376a1.094 1.094 0 001.093 1.093h1.094v5.469h-1.093a1.093 1.093 0 00-1.094 1.094v1.094H7.656v-1.094a1.094 1.094 0 00-1.093-1.094H2.188a1.093 1.093 0 00-1.094 1.094v4.375a1.094 1.094 0 001.093 1.093h4.376a1.093 1.093 0 001.093-1.093V17.5H25.74a17.106 17.106 0 00-3.827 3.466c-2.804 3.4-4.412 7.718-4.412 11.846h-1.094a1.093 1.093 0 00-1.093 1.094v4.375a1.093 1.093 0 001.093 1.094h4.375a1.093 1.093 0 001.094-1.094v-4.375a1.093 1.093 0 00-1.094-1.093h-1.093c0-8.11 6.24-14.508 12.03-15.242v1.023a1.094 1.094 0 001.095 1.093h4.374a1.093 1.093 0 001.094-1.093v-1.027c2.962.351 5.804 2.126 8.098 5.086 2.233 2.878 3.65 6.605 3.895 10.16H49.22a1.093 1.093 0 00-1.094 1.093v4.375a1.093 1.093 0 001.094 1.094h4.375a1.093 1.093 0 001.093-1.094v-4.375a1.093 1.093 0 00-1.093-1.093h-1.128c-.24-4.062-1.797-8.2-4.357-11.501a17.283 17.283 0 00-4.02-3.812h18.118c.046 0 .091-.004.137-.01v1.104a1.094 1.094 0 001.093 1.093h4.376a1.093 1.093 0 001.093-1.093v-4.375a1.094 1.094 0 00-1.094-1.094zM5.468 17.5H3.28v-2.188h2.19V17.5zm14.218 19.688H17.5V35h2.188v2.188zM33.907 3.28h2.187v2.19h-2.188V3.28zm2.186 14.22h-2.188v-2.188h2.188V17.5zM50.312 35H52.5v2.188h-2.188V35zM66.72 17.5h-2.19v-2.188h2.188V17.5z"></path>
  </symbol>
  <symbol xmlns="http://www.w3.org/2000/svg" viewBox="0 0 24 24" id="icon-search">
    <path d="M21 19l-5.154-5.154a7 7 0 10-2 2L19 21l2-2zM5 10c0-2.757 2.243-5 5-5s5 2.243 5 5-2.243 5-5 5-5-2.243-5-5z"></path>
  </symbol>
  <symbol xmlns="http://www.w3.org/2000/svg" viewBox="0 0 24 24" id="icon-tg">
    <path d="M20.665 3.717l-17.73 6.837c-1.21.486-1.203 1.161-.222 1.462l4.552 1.42 10.532-6.645c.498-.303.953-.14.579.192l-8.533 7.701h-.002l.002.001-.314 4.692c.46 0 .663-.21.921-.46l2.211-2.15 4.599 3.397c.848.467 1.457.227 1.668-.785l3.019-14.228c.309-1.239-.473-1.8-1.282-1.434z"></path>
  </symbol>
  <symbol xmlns="http://www.w3.org/2000/svg" viewBox="0 0 24 24" id="icon-vk">
    <g clip-path="url(#clip0)">
      <path fill-rule="evenodd" clip-rule="evenodd" d="M21.362 14.758s1.94 1.916 2.42 2.803a.15.15 0 01.022.042c.196.327.244.584.148.774-.162.313-.71.47-.896.483h-3.43c-.239 0-.736-.062-1.34-.48-.462-.322-.922-.854-1.367-1.373-.665-.772-1.24-1.442-1.822-1.442a.656.656 0 00-.216.036c-.44.14-1 .767-1 2.439 0 .523-.412.82-.701.82h-1.571c-.535 0-3.322-.187-5.793-2.792C2.79 12.878.07 6.48.043 6.424c-.169-.414.186-.64.57-.64h3.463c.465 0 .616.28.722.533.122.289.576 1.446 1.32 2.745 1.204 2.115 1.945 2.975 2.536 2.975a.63.63 0 00.317-.084c.773-.425.629-3.185.593-3.753 0-.11-.001-1.233-.397-1.775-.283-.389-.766-.54-1.057-.595.078-.113.243-.286.456-.388.529-.264 1.485-.302 2.434-.302h.527c1.03.014 1.296.08 1.67.175.754.18.769.668.703 2.331-.02.476-.04 1.01-.04 1.64 0 .135-.006.285-.006.438-.023.853-.053 1.814.55 2.209a.492.492 0 00.26.074c.209 0 .834 0 2.53-2.91.744-1.285 1.32-2.8 1.36-2.915.033-.063.134-.242.256-.314a.575.575 0 01.283-.067h4.074c.444 0 .745.067.804.235.099.272-.019 1.104-1.879 3.62-.313.418-.588.78-.83 1.097-1.685 2.213-1.685 2.325.1 4.005z"></path>
    </g>
    <defs>
      <clipPath id="clip0">
        <path d="M0 0h24v24H0z"></path>
      </clipPath>
    </defs>
  </symbol>
  <symbol xmlns="http://www.w3.org/2000/svg" viewBox="0 0 26 26" id="icon-youtube">
    <path d="M23.896 7.524a2.843 2.843 0 00-2.007-2.007c-1.771-.48-8.889-.48-8.889-.48s-7.117 0-8.889.48a2.844 2.844 0 00-2.007 2.007A29.356 29.356 0 001.625 13c-.012 1.836.149 3.67.48 5.476a2.844 2.844 0 002.006 2.007c1.772.48 8.889.48 8.889.48s7.117 0 8.889-.48a2.844 2.844 0 002.007-2.007c.33-1.806.49-3.64.479-5.476a29.346 29.346 0 00-.48-5.476zm-13.171 8.889V9.588L16.632 13l-5.907 3.413z"></path>
  </symbol>
  <symbol xmlns="http://www.w3.org/2000/svg" viewBox="0 0 216 52" id="logo">
    <path d="M44.55 44.48C39.52 49.492 33.364 52 26.083 52c-7.281 0-13.46-2.507-18.538-7.52C2.515 39.417 0 33.257 0 26c0-7.258 2.515-13.394 7.545-18.408C12.622 2.531 18.802 0 26.083 0 33.364 0 39.52 2.53 44.55 7.592c5.078 5.014 7.616 11.15 7.616 18.408 0 7.258-2.538 13.418-7.616 18.48zm-31.185-5.587c3.449 3.39 7.688 5.085 12.718 5.085s9.245-1.695 12.647-5.085c3.449-3.438 5.173-7.736 5.173-12.893 0-5.157-1.724-9.43-5.173-12.82-3.402-3.439-7.617-5.158-12.647-5.158s-9.27 1.719-12.718 5.157C9.964 16.57 8.263 20.843 8.263 26s1.7 9.455 5.102 12.893zM80.205 52c-7.808 0-13.198-3.056-16.168-9.168l7.114-4.154c1.629 3.533 4.67 5.3 9.126 5.3 2.874 0 5.077-.692 6.61-2.077 1.581-1.433 2.371-3.438 2.371-6.017V.931h8.264v34.953c0 5.157-1.63 9.145-4.887 11.962-3.257 2.77-7.4 4.154-12.43 4.154zm48.459 0c-7.808 0-13.197-3.056-16.167-9.168l7.114-4.154c1.628 3.533 4.67 5.3 9.125 5.3 2.874 0 5.078-.692 6.611-2.077 1.581-1.433 2.371-3.438 2.371-6.017V.931h8.263v34.953c0 5.157-1.628 9.145-4.886 11.962-3.257 2.77-7.401 4.154-12.431 4.154zm79.719-7.52c-5.029 5.013-11.185 7.52-18.466 7.52-7.281 0-13.461-2.507-18.539-7.52-5.029-5.062-7.544-11.222-7.544-18.48 0-7.258 2.515-13.394 7.544-18.408C176.456 2.531 182.636 0 189.917 0c7.281 0 13.437 2.53 18.466 7.592C213.461 12.606 216 18.742 216 26c0 7.258-2.539 13.418-7.617 18.48zm-31.184-5.587c3.449 3.39 7.688 5.085 12.718 5.085s9.245-1.695 12.646-5.085c3.449-3.438 5.174-7.736 5.174-12.893 0-5.157-1.725-9.43-5.174-12.82-3.401-3.439-7.616-5.158-12.646-5.158-5.03 0-9.269 1.719-12.718 5.157-3.401 3.39-5.102 7.664-5.102 12.821s1.701 9.455 5.102 12.893z"></path>
    <path d="M36.13 23.933l-.005-.052a.707.707 0 00-.06-.187l-2.94-5.27s-.376-.518-.465-.518H20.127l-3.77 5.609-.044.052-.006.024a.966.966 0 00-.078.18l-.015.05a.901.901 0 00.006.492l.017.056a.912.912 0 00.087.182l9.113 12.85.019.03a.827.827 0 00.174.181l.052.037a.901.901 0 00.186.097l.051.02c.09.024.167.036.242.036a.877.877 0 00.252-.04l.062-.024a.87.87 0 00.18-.099l.041-.028a.76.76 0 00.158-.162l9.124-12.864a.96.96 0 00.153-.409l.007-.066.004-.053-.011-.124zm-4.892-.342l1.299-2.617 1.298 2.617h-2.597zm-.779 1.55h3.082l-5.136 7.243 2.054-7.243zm-.762-2.334l-1.876-2.833h3.282l-1.406 2.832zm-6.009 2.334h4.948l-2.474 8.722-2.474-8.722zm.49-1.55l1.983-2.995 1.983 2.995H24.18zm-1.396-1.02l-.86-2.598h2.58l-1.72 2.599zm1.137 9.813l-5.136-7.243h3.082l2.054 7.243zm-3.484-11.391l.86 2.598h-2.58l1.72-2.598zm179.364 2.94l-.006-.052a.707.707 0 00-.059-.187l-2.941-5.27s-.375-.518-.464-.518h-12.534l-3.769 5.609-.045.052-.006.024a.96.96 0 00-.078.18l-.015.05a.9.9 0 00.006.492l.018.056a.84.84 0 00.087.182l9.113 12.85.018.03a.827.827 0 00.174.181l.053.037a.897.897 0 00.185.097l.052.02a.87.87 0 00.242.036.881.881 0 00.252-.04l.062-.024a.89.89 0 00.18-.099l.041-.028a.756.756 0 00.157-.162l9.124-12.864a.959.959 0 00.154-.409l.007-.066.003-.053-.011-.124zm-4.893-.342l1.299-2.617 1.298 2.617h-2.597zm-.779 1.55h3.082l-5.136 7.243 2.054-7.243zm-.762-2.334l-1.876-2.833h3.282l-1.406 2.832zm-6.008 2.334h4.948l-2.475 8.722-2.473-8.722zm.49-1.55l1.983-2.995 1.982 2.995h-3.965zm-1.396-1.02l-.86-2.598h2.58l-1.72 2.599zm1.137 9.813l-5.137-7.243h3.082l2.055 7.243zm-3.484-11.391l.86 2.598h-2.58l1.72-2.598z"></path>
  </symbol>
  <symbol xmlns="http://www.w3.org/2000/svg" viewBox="0 0 24 24" id="icon-account">
    <path d="M12 4a4 4 0 110 8 4 4 0 010-8zm0 10c4.42 0 8 1.79 8 4v2H4v-2c0-2.21 3.58-4 8-4z"></path>
  </symbol>
  <symbol xmlns="http://www.w3.org/2000/svg" viewBox="0 0 17 17" id="icon-bullet">
    <path d="M11 8.5l-3.75 2.165v-4.33L11 8.5z"></path>
    <path d="M4.75 2.005L16 8.5 4.75 14.995V2.005z"></path>
  </symbol>
  <symbol xmlns="http://www.w3.org/2000/svg" viewBox="0 0 70 70" id="icon-delivery">
    <path d="M61.25 39.346c-.604 0-1.094.49-1.094 1.094v7.664h-1.74a6.913 6.913 0 00-13.737 0H21.875V16.385h38.281v3.44a1.094 1.094 0 002.188 0v-4.533c0-.604-.49-1.094-1.094-1.094H20.781c-.604 0-1.093.49-1.093 1.094v1.093H7.162a4.98 4.98 0 00-4.974 4.975v1.588c0 .604.49 1.094 1.093 1.094h1.272L3.72 34.066A4.971 4.971 0 000 38.86v9.244c0 .604.49 1.094 1.094 1.094h2.215a7.103 7.103 0 0014.164 0c.01 0 .017.005.027.005h2.188c0 .604.49 1.094 1.093 1.094h23.997a6.915 6.915 0 0013.539 0h2.933c.604 0 1.094-.49 1.094-1.094V40.44c0-.604-.49-1.094-1.094-1.094zM10.39 53.573a4.922 4.922 0 110-9.844 4.922 4.922 0 010 9.844zm9.297-6.563H17.5c-.064.007-.128.02-.19.039a7.1 7.1 0 00-13.83-.039H2.188v-8.15a2.79 2.79 0 012.786-2.787h14.713V47.01zm0-13.125H5.928l.82-9.843h12.94v9.843zm0-12.03H4.376v-.495a2.79 2.79 0 012.787-2.787h12.526v3.281zm36.58 27.3a4.718 4.718 0 01-4.719 4.453 4.726 4.726 0 01-4.647-3.92.984.984 0 00-.056-1.063 4.719 4.719 0 019.422.53z"></path>
    <path d="M60.156 22.948H44.844a1.094 1.094 0 000 2.187h15.312a1.094 1.094 0 100-2.187zm2.188 12.032H38.28a1.094 1.094 0 000 2.187h24.063a1.094 1.094 0 000-2.188zm-2.188-6.563H48.125a1.094 1.094 0 000 2.187h12.031a1.094 1.094 0 100-2.187zm4.375-3.282h2.188a1.094 1.094 0 000-2.187H64.53a1.094 1.094 0 000 2.187zm3.282 9.845h-2.188a1.094 1.094 0 000 2.187h2.188a1.094 1.094 0 000-2.188zm1.093-6.563h-4.375a1.094 1.094 0 000 2.187h4.375a1.094 1.094 0 100-2.187z"></path>
  </symbol>
  <symbol xmlns="http://www.w3.org/2000/svg" viewBox="0 0 16 16" id="icon-etsy">
    <path d="M5.71 1.63c0-.217.021-.347.393-.347h4.976c.867 0 1.347.74 1.694 2.129l.28 1.11h.846c.154-3.151.287-4.522.287-4.522s-2.13.24-3.393.24H4.427L1.017.13v.914l1.15.217c.807.16 1 .331 1.067 1.071 0 0 .073 2.18.073 5.76 0 3.59-.06 5.74-.06 5.74 0 .649-.26.889-1.06 1.049l-1.148.22V16l3.42-.11h5.7c1.29 0 4.26.11 4.26.11.07-.78.5-4.32.57-4.71h-.8l-.856 1.94c-.67 1.52-1.65 1.63-2.74 1.63h-3.27c-1.087 0-1.61-.426-1.61-1.366v-4.96s2.413 0 3.193.063c.608.043.975.217 1.173 1.066l.26 1.13h.94l-.06-2.852.128-2.87h-.927l-.3 1.26c-.189.829-.32.98-1.17 1.066-1.11.114-3.21.094-3.21.094V1.633h-.033l.002-.003z"></path>
  </symbol>
  <symbol xmlns="http://www.w3.org/2000/svg" viewBox="0 0 80 80" id="button-play">
    <path d="M40 5C20.672 5 5 20.672 5 40s15.672 35 35 35 35-15.672 35-35S59.328 5 40 5zm11.258 35.54L34.195 52.952a.626.626 0 01-.992-.508V27.633a.624.624 0 01.992-.508l17.063 12.406a.619.619 0 010 1.008z"></path>
  </symbol>
</svg>